<svg width="60" height="60" viewBox="0 0 60 60" fill="none" xmlns="http://www.w3.org/2000/svg">
<rect x="2" y="2" width="56" height="56" fill="#22333B" stroke="#F9F5E3" stroke-width="4"/>
<path d="M17.6286 46.934L15.7366 36.55L13.8666 16.024H8.52061V11.8H17.1226L19.2346 25.022L20.2466 42.71H21.2146L22.2046 24.934L24.3386 11.8H32.9626V16.024H27.6166L25.7466 36.594L23.8326 46.934H17.6286ZM8.52061 47V17.872H12.2386L13.2726 37.078V47H8.52061ZM28.1886 47V37.144L29.2666 17.872H32.9626V47H28.1886ZM43.3879 47.33C41.0999 47.198 39.4645 46.56 38.4819 45.416C37.4992 44.272 36.9712 42.4827 36.8979 40.048C36.8539 38.4347 36.8245 36.7333 36.8099 34.944C36.7952 33.14 36.7879 31.3213 36.7879 29.488C36.7879 27.64 36.7952 25.8287 36.8099 24.054C36.8245 22.2647 36.8539 20.5707 36.8979 18.972C36.9859 16.42 37.5212 14.5647 38.5039 13.406C39.5012 12.2473 41.1292 11.602 43.3879 11.47V15.474C42.8305 15.606 42.4052 15.87 42.1119 16.266C41.8332 16.662 41.6792 17.1973 41.6499 17.872C41.5912 19.7053 41.5399 21.59 41.4959 23.526C41.4665 25.462 41.4519 27.4127 41.4519 29.378C41.4519 31.3433 41.4665 33.294 41.4959 35.23C41.5399 37.166 41.5912 39.0507 41.6499 40.884C41.6792 41.5587 41.8332 42.1013 42.1119 42.512C42.3905 42.9227 42.8159 43.194 43.3879 43.326V47.33ZM45.4339 47.352V43.348C46.0352 43.216 46.4899 42.9447 46.7979 42.534C47.1205 42.1233 47.3039 41.5733 47.3479 40.884C47.3625 40.3267 47.3699 39.7107 47.3699 39.036C47.3845 38.3467 47.3845 37.672 47.3699 37.012C47.3699 36.3373 47.3625 35.714 47.3479 35.142H44.6639V30.984H51.9899C52.0339 32.216 52.0485 33.6093 52.0339 35.164C52.0339 36.7187 52.0045 38.3467 51.9459 40.048C51.8432 42.4827 51.2859 44.272 50.2739 45.416C49.2619 46.56 47.6485 47.2053 45.4339 47.352ZM47.0839 24.494C47.1279 23.4967 47.1499 22.3967 47.1499 21.194C47.1499 19.9767 47.1279 18.8693 47.0839 17.872C47.0545 17.212 46.9005 16.684 46.6219 16.288C46.3579 15.892 45.9619 15.628 45.4339 15.496V11.47C47.5752 11.602 49.1372 12.24 50.1199 13.384C51.1172 14.528 51.6892 16.3027 51.8359 18.708C51.8799 19.6173 51.9019 20.5853 51.9019 21.612C51.9019 22.624 51.8799 23.5847 51.8359 24.494H47.0839Z" fill="white"/>
</svg>
